  0
SECTION
  2
HEADER
  9
$EXTMIN
 10
  416004.346553
 20
   92779.480428
  9
$EXTMAX
 10
  416040.779117
 20
   92818.878600
  0
ENDSEC
  0
SECTION
  2
TABLES
  0
TABLE
  2
LAYER
 70
     1
  0
LAYER
  2
0
 70
     0
 62
     1
  6
CONTINUOUS
  0
ENDTAB
  0
ENDSEC
  0
SECTION
  2
ENTITIES
  0
POLYLINE
  8
0
  66
1
  0
VERTEX
  8
0
 10
416011.430361
 20
92801.510930
 30
0
  0
VERTEX
  8
0
 10
416016.104864
 20
92792.663050
 30
0
  0
VERTEX
  8
0
 10
416009.023804
 20
92788.933050
 30
0
  0
VERTEX
  8
0
 10
416004.346553
 20
92797.771790
 30
0
  0
VERTEX
  8
0
 10
416011.430361
 20
92801.510930
 30
0
  0
SEQEND
  0
POLYLINE
  8
0
  66
1
  0
VERTEX
  8
0
 10
416030.385857
 20
92791.254747
 30
0
  0
VERTEX
  8
0
 10
416037.505036
 20
92795.022048
 30
0
  0
VERTEX
  8
0
 10
416040.779117
 20
92788.834928
 30
0
  0
VERTEX
  8
0
 10
416027.661679
 20
92781.904506
 30
0
  0
VERTEX
  8
0
 10
416023.101636
 20
92779.480428
 30
0
  0
VERTEX
  8
0
 10
416019.827557
 20
92785.667548
 30
0
  0
VERTEX
  8
0
 10
416030.385857
 20
92791.254747
 30
0
  0
SEQEND
  0
POLYLINE
  8
0
  66
1
  0
VERTEX
  8
0
 10
416037.499272
 20
92795.014000
 30
0
  0
VERTEX
  8
0
 10
416034.630044
 20
92793.500796
 30
0
  0
VERTEX
  8
0
 10
416030.380092
 20
92791.246700
 30
0
  0
VERTEX
  8
0
 10
416028.468773
 20
92794.857660
 30
0
  0
VERTEX
  8
0
 10
416017.749012
 20
92815.109969
 30
0
  0
VERTEX
  8
0
 10
416017.799712
 20
92815.136800
 30
0
  0
VERTEX
  8
0
 10
416024.870702
 20
92818.878600
 30
0
  0
VERTEX
  8
0
 10
416037.499272
 20
92795.014000
 30
0
  0
SEQEND
  0
POLYLINE
  8
0
  66
1
  0
VERTEX
  8
0
 10
416030.390654
 20
92791.252049
 30
0
  0
VERTEX
  8
0
 10
416019.877763
 20
92785.595486
 30
0
  0
VERTEX
  8
0
 10
416018.006863
 20
92789.130976
 30
0
  0
VERTEX
  8
0
 10
416017.980295
 20
92789.181286
 30
0
  0
VERTEX
  8
0
 10
416028.524299
 20
92794.680244
 30
0
  0
VERTEX
  8
0
 10
416030.390654
 20
92791.252049
 30
0
  0
SEQEND
  0
POLYLINE
  8
0
  66
1
  0
VERTEX
  8
0
 10
416017.932122
 20
92789.218411
 30
0
  0
VERTEX
  8
0
 10
416028.503714
 20
92794.748946
 30
0
  0
VERTEX
  8
0
 10
416017.739205
 20
92815.098179
 30
0
  0
VERTEX
  8
0
 10
416017.789905
 20
92815.125009
 30
0
  0
VERTEX
  8
0
 10
416007.257147
 20
92809.504991
 30
0
  0
VERTEX
  8
0
 10
416011.405752
 20
92801.554779
 30
0
  0
VERTEX
  8
0
 10
416016.080255
 20
92792.706899
 30
0
  0
VERTEX
  8
0
 10
416017.198635
 20
92790.607133
 30
0
  0
VERTEX
  8
0
 10
416017.914516
 20
92789.233509
 30
0
  0
VERTEX
  8
0
 10
416017.932122
 20
92789.218411
 30
0
  0
SEQEND
  0
ENDSEC
  0
EOF
